<svg t="1724401194263" class="icon" viewBox="0 0 1025 1024" version="1.1" xmlns="http://www.w3.org/2000/svg" p-id="9541" width="300" height="300"><path d="M726.528 729.088c0-0.512 0-1.536 0.512-2.048l-95.232-61.44c-4.096-2.048-8.704-0.512-10.752 3.584s-0.512 8.704 3.584 10.752l102.4 65.024v-15.872h-0.512zM823.808 885.76c-2.048 1.536-5.12 1.536-7.168 0l-4.608-2.56v114.688c0 4.096 3.584 7.68 7.68 7.68s7.68-3.584 7.68-7.68v-114.688l-3.584 2.56z" fill="#5672cd" p-id="9542"></path><path d="M1025.024 670.72c0-5.632-3.072-10.752-7.68-13.824L828.416 547.84c-5.12-2.56-10.752-2.56-15.872 0l-188.928 109.056c-5.12 2.56-7.68 8.192-7.68 13.824v218.112c0 5.632 3.072 10.752 7.68 13.824l188.928 109.056c5.12 2.56 10.752 2.56 15.872 0l188.928-109.056c5.12-2.56 7.68-8.192 7.68-13.824V670.72z m-15.872 218.112l-188.928 109.056-188.928-109.056V670.72l188.928-109.056 188.928 109.056v218.112z" fill="#5672cd" p-id="9543"></path><path d="M914.432 729.088v11.776l96.768-57.344c3.584-2.048 5.12-7.168 3.072-10.752-2.048-3.584-7.168-5.12-10.752-3.072l-91.136 54.272c1.024 1.536 2.048 3.072 2.048 5.12z" fill="#5672cd" p-id="9544"></path><path d="M730.112 836.096l86.528 50.176c2.048 1.536 5.12 1.536 7.168 0l86.528-50.176c2.048-1.536 3.584-3.584 3.584-6.144v-100.352c0-2.56-1.536-5.12-3.584-6.144l-86.528-50.176c-2.048-1.536-5.12-1.536-7.168 0l-86.528 50.176c-2.048 1.536-3.584 3.584-3.584 6.144v100.352c0 2.56 1.024 4.608 3.584 6.144z m3.584-106.496l86.528-50.176 86.528 50.176v100.352l-86.528 50.176-86.528-50.176v-100.352z m173.568 104.448c2.56 1.536 6.656-1.024 4.608-5.632L824.32 775.68v-98.816c-3.072-3.584-7.168-1.536-7.168 1.536v97.28l-86.528 52.224c-1.536 1.024-2.56 2.56-2.048 4.608 1.024 2.048 3.072 3.072 5.12 2.048l86.528-52.224 87.04 51.712z" fill="#5672cd" p-id="9545"></path><path d="M618.496 903.168c-1.024-0.512-2.048-1.536-3.072-2.048-8.192 2.048-16.896 4.096-25.6 6.144-6.144 1.024-11.776 6.144-12.8 12.8l-11.776 68.096H458.24l-11.776-69.632c-1.536-6.144-6.144-11.264-12.8-12.8-52.224-9.728-101.376-30.208-145.408-59.904-5.632-4.096-12.8-4.096-18.432 0L212.992 885.76l-75.264-75.264 39.936-56.832c4.096-5.632 4.096-12.8 0-18.432-29.696-44.032-49.664-93.696-59.904-145.408-1.024-6.144-6.144-11.776-12.8-12.8l-68.096-11.776v-107.52L104.96 445.44c6.144-1.536 11.264-6.144 12.8-12.8 9.728-52.224 30.208-101.376 59.904-145.408 4.096-5.632 4.096-12.8 0-18.432l-39.936-56.832 75.264-75.264 56.832 39.936c5.632 4.096 12.8 4.096 18.432 0 44.032-29.696 93.696-49.664 145.408-59.904 6.144-1.024 11.776-6.144 12.8-12.8l11.776-67.072h107.008l11.776 68.096c1.536 6.144 6.144 11.264 12.8 12.8 52.224 9.728 101.376 30.208 145.408 59.904 5.632 4.096 12.8 4.096 18.432 0l56.832-39.936L885.76 212.992l-39.936 56.832c-4.096 5.632-4.096 12.8 0 18.432 29.696 44.032 49.664 93.696 59.904 145.408 1.024 6.144 6.144 11.776 12.8 12.8l68.096 11.776v108.032l-68.096 11.776c-6.144 1.536-11.264 6.144-12.8 12.8-0.512 1.536-0.512 3.072-1.024 4.608l28.672 16.896c0.512-1.024 0.512-2.56 1.024-3.584l71.168-12.8c8.192-1.536 13.824-8.192 13.824-15.872V446.464c0-8.192-5.632-14.336-13.824-15.872l-71.168-12.8c-11.264-49.664-29.696-95.232-56.832-137.728l41.472-59.392c4.608-6.144 4.096-15.36-1.536-20.992l-92.16-94.208c-5.632-5.632-14.336-6.144-20.992-1.536l-59.392 41.472c-42.496-27.136-88.576-45.568-137.728-56.832l-12.8-71.168c-1.536-8.192-8.192-13.824-15.872-13.824H446.464c-8.192 0-14.336 5.632-15.872 13.824l-12.8 71.168c-49.664 11.264-95.232 29.696-137.728 56.832l-59.392-41.472c-6.144-4.608-15.36-4.096-20.992 1.536L105.472 200.192c-5.632 5.632-6.144 14.336-1.536 20.992l41.472 57.344c-27.136 42.496-45.568 88.576-56.832 137.728L17.408 429.056c-8.192 1.536-13.824 8.192-13.824 15.872v132.608c0 8.192 5.632 14.336 13.824 15.872l71.168 12.8c11.264 49.664 29.696 95.232 56.832 137.728l-41.472 59.392c-4.608 6.144-4.096 15.36 1.536 20.992l92.672 94.208c5.632 5.632 14.336 6.144 20.992 1.536l59.392-41.472c42.496 27.136 88.576 45.568 137.728 56.832l12.8 71.168c1.536 8.192 8.192 13.824 15.872 13.824h134.144c7.168 0 14.336-5.632 14.336-13.824l12.8-71.168c15.36-3.584 30.72-7.68 45.056-12.8l-32.768-19.456z" fill="#5672cd" p-id="9546"></path><path d="M574.976 760.832v-108.032c21.504-8.192 40.96-20.992 57.344-37.376 32.768-33.792 51.2-79.36 49.664-126.464 0-2.56-1.024-4.096-2.56-5.632l-17.408-17.408c-3.072-3.072-8.192-3.072-11.264 0l-76.8 76.8-83.968-26.624-26.624-83.968 76.8-75.776c1.536-1.536 2.56-3.072 2.56-5.632s-1.024-4.096-2.56-5.632l-17.408-17.408c-1.536-1.536-3.072-2.56-5.632-2.56-48.128-1.536-92.672 15.872-126.464 49.664-31.744 31.744-49.664 74.24-49.664 119.808s17.408 88.064 49.664 119.808c8.192 8.192 17.408 15.36 27.136 21.504v115.2c-97.792-38.4-163.328-132.608-163.328-239.104 0-141.824 115.2-257.024 257.024-257.024s257.024 115.2 257.024 257.024c0 22.016-3.072 43.52-8.192 64l18.944-10.752c3.584-17.408 5.12-34.816 5.12-53.248 0-150.528-122.368-272.896-272.896-272.896S239.104 361.472 239.104 512c0 116.736 74.24 220.672 184.832 258.56 28.672 9.728 58.368 14.336 88.064 14.336 18.432 0 37.376-2.56 56.832-4.608 1.536-0.512 2.56-1.024 3.584-2.048 13.312-3.072 26.112-7.168 38.4-11.776v-17.408c-11.264 4.608-23.552 8.704-35.84 11.776z m-172.544-158.208c-28.672-28.672-45.056-68.096-45.056-108.544s15.872-79.872 45.056-108.544c29.696-29.696 69.632-45.568 111.104-45.056l9.728 9.728-74.24 73.728c-1.536 2.56-2.56 4.608-1.536 8.192l28.672 92.16c1.024 3.072 3.072 4.608 5.632 5.632l92.16 28.672c2.56 1.536 5.632 1.024 8.192-1.536l74.24-74.24 9.728 9.728c1.024 41.472-15.36 81.408-45.056 111.104-15.872 15.872-35.328 28.16-56.832 35.84-3.072 1.024-5.632 4.096-5.632 7.168v118.272c-17.408 3.072-35.328 4.608-53.248 4.096-5.12 0-10.24-0.512-15.36-1.024h-2.56l-10.752-1.536c-2.56-0.512-5.12-0.512-7.68-1.024-1.536-0.512-3.072-0.512-4.608-1.024-9.728-2.048-19.456-4.096-28.672-7.168H435.2h-0.512v-124.928c0-3.072-1.536-5.632-4.096-7.168-10.752-6.656-19.968-14.848-28.16-22.528z" fill="#5672cd" p-id="9547"></path></svg>