<svg t="1724401511020" class="icon" viewBox="0 0 1024 1024" version="1.1" xmlns="http://www.w3.org/2000/svg" p-id="13447" width="300" height="300"><path d="M894.226 85.882H132.268c-35.937 0-65.72 29.822-65.72 65.796v549.961c0 37.013 30.123 57.851 67.079 57.851h313.05l-0.188 130.289-111.604 4.435c-13.363 0-22.366 9.078-22.366 22.442 0 13.362 9.004 22.461 22.366 22.461h357.763c13.345 0 22.347-9.098 22.347-22.461 0-13.364-9.002-22.442-22.347-22.442H580.836V759.49h313.05c36.975 0 67.079-19.799 67.079-56.812v-551c0-35.974-29.783-65.796-66.739-65.796z m-760.6 44.903h760.26c10.268 0 22.366 12.174 22.366 22.461v449.078H111.279V153.245c0-10.286 13.119-22.46 22.347-22.46z m402.497 763.43h-44.732V759.49h44.732v134.725z m357.763-179.647h-760.26c-10.267 0-22.347-12.173-22.347-22.441v-44.921h804.973v44.921c1.019 11.305-12.098 22.441-22.366 22.441zM713.239 327.455L560.773 474.826l-57.83-57.888c-10.513-10.531-21.027-10.531-31.558 0-10.513 10.532-10.513 21.045 0 31.577l68.344 68.421c5.266 5.266 15.779 5.266 21.045 5.266 5.247 0 15.779 0 21.026-5.266l162.98-163.17c5.266-5.246 5.266-21.044 0-26.311-10.514-10.512-26.274-10.512-31.541 0z m-132.403-84.406H290.152c-10.513 0-22.347-11.91-22.347-22.442 0-10.531 11.834-22.461 22.347-22.461h313.05c10.514 0 22.366 11.93 22.366 22.461 0 10.532-11.853 22.442-22.366 22.442h-22.366z m-89.445 112.284H290.152c-10.513 0-22.347-6.664-22.347-22.461 0-10.532 11.834-22.461 22.347-22.461h223.605c15.779 0 22.366 11.928 22.366 22.461 0 15.797-6.587 22.461-22.366 22.461h-22.366z" fill="#5672cd" p-id="13448"></path></svg>