<svg t="1724401358085" class="icon" viewBox="0 0 1024 1024" version="1.1" xmlns="http://www.w3.org/2000/svg" p-id="11026" width="300" height="300"><path d="M746.666667 299.127467c11.008 0 20.138667 8.362667 21.230933 18.961066l0.1024 2.167467v327.509333c0 10.888533-8.430933 19.933867-19.165867 21.026134l-2.167466 0.1024h-469.333334a21.333333 21.333333 0 0 1-21.230933-18.978134L256 647.765333v-327.509333c0-10.9056 8.430933-19.933867 19.165867-21.026133l2.167466-0.1024h469.333334z m-12.8 34.133333H290.133333v301.499733h443.733334V333.2608z" fill="#5672cd" p-id="11027"></path><path d="M415.744 424.328533l-46.933333 121.856h19.797333l11.434667-31.402666h52.394666l11.434667 31.402666h19.968l-46.933333-121.856h-21.162667z m-10.069333 75.093334l20.309333-55.125334H426.666667l20.138666 55.125334h-41.130666zM495.786667 424.328533v121.856h18.602666v-47.445333h31.573334c29.184 0 43.861333-12.458667 43.861333-37.376 0-24.746667-14.506667-37.034667-43.52-37.034667h-50.517333z m18.602666 15.872h30.378667c9.045333 0 15.701333 1.706667 19.968 5.12 4.266667 3.072 6.485333 8.533333 6.485333 16.042667 0 7.509333-2.218667 12.970667-6.314666 16.384-4.266667 3.413333-10.922667 5.12-20.138667 5.12h-30.378667v-42.666667zM607.402667 424.328533v121.856h18.432v-121.856zM597.4016 709.000533a17.066667 17.066667 0 0 1 1.979733 34.030934l-1.979733 0.1024h-170.5984a17.066667 17.066667 0 0 1-1.9968-34.013867l1.9968-0.119467h170.5984z" fill="#5672cd" p-id="11028"></path><path d="M582.621867 40.772267l302.165333 174.455466a141.243733 141.243733 0 0 1 70.621867 122.3168v348.910934a141.243733 141.243733 0 0 1-70.621867 122.3168L582.621867 983.227733a141.243733 141.243733 0 0 1-141.243734 0L139.2128 808.772267a141.243733 141.243733 0 0 1-70.621867-122.3168V337.544533a141.243733 141.243733 0 0 1 70.621867-122.3168L441.378133 40.772267a141.243733 141.243733 0 0 1 141.243734 0z m-17.066667 29.559466a107.1104 107.1104 0 0 0-102.912-2.286933l-4.1984 2.286933L156.279467 244.7872a107.1104 107.1104 0 0 0-53.4528 88.354133l-0.1024 4.4032v348.910934a107.1104 107.1104 0 0 0 49.783466 90.4704l3.771734 2.286933 302.165333 174.455467a107.1104 107.1104 0 0 0 102.912 2.286933l4.1984-2.286933 302.165333-174.455467a107.1104 107.1104 0 0 0 53.4528-88.354133l0.1024-4.4032V337.544533a107.1104 107.1104 0 0 0-49.783466-90.4704l-3.771734-2.286933L565.5552 70.331733z" fill="#5672cd" p-id="11029"></path></svg>