<svg t="1724401445316" class="icon" viewBox="0 0 1024 1024" version="1.1" xmlns="http://www.w3.org/2000/svg" p-id="12384" width="300" height="300"><path d="M904.474482 653.899049h-18.336753L891.520996 50.468464A43.570817 43.570817 0 0 0 848.45486 6.392966L127.769992 0.000336a43.570817 43.570817 0 0 0-43.739045 43.066136L76.460728 907.080824a43.570817 43.570817 0 0 0 43.066136 43.907272l455.558969 4.03745v22.878885a43.570817 43.570817 0 0 0 43.066136 43.907271l282.621517 2.186952a43.570817 43.570817 0 0 0 43.907271-43.066136l2.523407-283.126198a43.570817 43.570817 0 0 0-42.729682-43.907271z m-327.03347 40.542729l-2.186952 243.424604-455.558969-3.869223A26.579881 26.579881 0 0 1 93.283437 907.080824l7.57022-863.846125A26.579881 26.579881 0 0 1 126.928856 16.823046l720.516641 6.392629A26.579881 26.579881 0 0 1 874.698286 50.468464l-5.21504 603.598812-248.134962-2.186952a43.570817 43.570817 0 0 0-43.907272 42.561454z m130.039543 253.854684h-44.075498L665.255555 727.582516h44.075499zM893.707948 773.844966l-102.954981-0.841135v40.542729h84.954682v44.075499h-84.954682v91.851993h-44.075499l1.850498-220.713947 147.03048 1.345817z" fill="#5672cd" p-id="12385"></path><path d="M573.571789 184.040777a11.102988 11.102988 0 0 0-14.635757 5.719721l-151.404384 346.379585a11.102988 11.102988 0 1 0 20.523705 8.916036l151.404384-346.379585a11.102988 11.102988 0 0 0-5.887948-14.635757zM385.662126 252.340977a11.102988 11.102988 0 0 0-15.308666-3.869224L207.677861 347.05283a11.102988 11.102988 0 0 0 0 19.009662l160.993328 100.936256a11.102988 11.102988 0 1 0 11.775897-19.009662l-145.684663-91.179084 147.198707-88.655679a11.102988 11.102988 0 0 0 3.700996-15.813346zM619.497786 251.331614a11.102988 11.102988 0 0 0-11.775897 19.009662l145.516436 91.179084-147.198707 88.655678a11.102988 11.102988 0 1 0 11.439442 19.177889l162.6756-98.076395a11.102988 11.102988 0 0 0 0-19.009662z" fill="#5672cd" p-id="12386"></path></svg>