<svg t="1724401578835" class="icon" viewBox="0 0 1024 1024" version="1.1" xmlns="http://www.w3.org/2000/svg" p-id="14492" width="300" height="300"><path d="M833.984 960h70.4v-67.712h-70.4V960z m61.824-440.32c-92.416-2.816-147.904 38.848-166.336 124.928l61.824 14.848c12.8-57.856 44.032-86.08 93.824-84.672 42.624 2.816 66.112 24 70.4 63.488 2.816 26.816-16.384 54.336-57.6 82.56-38.4 26.816-56.896 60.032-55.424 99.52v23.296h55.424v-19.072c-1.408-29.632 14.912-55.04 49.024-76.224 54.016-33.856 79.616-72.64 76.8-116.416-7.104-70.592-49.728-108.032-127.936-112.256z m-130.048-200v-19.2c0-1.792-3.776-3.2-8.448-3.2h-593.28c-4.672 0-8.448 1.408-8.448 3.2v19.2c0 1.792 3.776 3.2 8.448 3.2h593.216c4.672 0 8.512-1.408 8.512-3.2zM155.584 502.4v19.2c0 1.792 3.776 3.2 8.448 3.2H536.96c4.672 0 8.448-1.408 8.448-3.2v-19.2c0-1.792-3.776-3.2-8.448-3.2H164.032c-4.672 0-8.448 1.408-8.448 3.2z m8.448 198.72c-4.672 0-8.448 1.408-8.448 3.2v19.2c0 1.792 3.776 3.2 8.448 3.2h559.296c4.672 0 8.448-1.408 8.448-3.2v-19.2c0-1.792-3.776-3.2-8.448-3.2H164.032z m-131.2 123.328V199.552c0-61.824 50.304-112.128 112.128-112.128H827.2c61.888 0 112.192 50.304 112.192 112.128v209.792h25.6V199.552c0-75.968-61.824-137.792-137.792-137.792H144.96c-75.968 0-137.792 61.824-137.792 137.792v624.896c0 76.032 61.824 137.792 137.792 137.792h580.736v-25.6H144.96c-61.824 0-112.128-50.304-112.128-112.192z" fill="#5672cd" p-id="14493"></path></svg>